{
  "asset": {
    "version": "2.0",
    "generator": "THREE.GLTFExporter"
  },
  "scenes": [
    {
      "nodes": [
        0
      ]
    }
  ],
  "scene": 0,
  "nodes": [
    {
      "children": [
        7
      ],
      "matrix": [
        0.01,
        0,
        0,
        0,
        0,
        0.01,
        0,
        0,
        0,
        0,
        0.01,
        0,
        0,
        0,
        0,
        1
      ]
    },
    {
      "matrix": [
        0.4417174422887156,
        0.4129878525463601,
        -0.7964463163497344,
        0,
        -0.6829527731635101,
        0.7304625312966239,
        0,
        0,
        0.5817741922826987,
        0.5439352204269133,
        0.604709240191465,
        0,
        0,
        0,
        0,
        1
      ],
      "name": "Directional Light 2",
      "extensions": {
        "KHR_lights_punctual": {
          "light": 0
        }
      }
    },
    {
      "name": "Mesh",
      "mesh": 0
    },
    {
      "matrix": [
        1,
        0,
        0,
        0,
        0,
        0.973261840225188,
        0,
        0,
        0,
        0,
        0.9769984183710284,
        0,
        -191,
        231.90826132938093,
        -62.72386511038107,
        1
      ],
      "name": "chrome crystal americal foo...",
      "children": [
        2
      ]
    },
    {
      "matrix": [
        0.6388136909095272,
        -0.5086532192209094,
        -0.5772252341008253,
        0,
        -0.6229029823575605,
        -0.7822990953401754,
        0,
        0,
        -0.4515627784445966,
        0.3595553198134451,
        -0.81658497972792,
        0,
        0,
        0,
        0,
        1
      ],
      "name": "Directional Light",
      "extensions": {
        "KHR_lights_punctual": {
          "light": 1
        }
      }
    },
    {
      "matrix": [
        -0.2648790642881298,
        2.2133871374618863e-8,
        0.9642816400315024,
        0,
        0.49597250663549364,
        0.8575839446940436,
        0.1362389462110917,
        0,
        -0.8269524496387624,
        0.514344026701004,
        -0.22715604379687315,
        0,
        -520.3552650699546,
        535.9638468494838,
        -124.41234172429459,
        1
      ],
      "name": "Personal Camera",
      "camera": 0
    },
    {
      "matrix": [
        1,
        0,
        0,
        0,
        0,
        1,
        0,
        0,
        0,
        0,
        1,
        0,
        0,
        1,
        0,
        1
      ],
      "name": "Default Ambient Light"
    },
    {
      "name": "Scene 1",
      "children": [
        1,
        3,
        4,
        5,
        6
      ]
    }
  ],
  "extensions": {
    "KHR_lights_punctual": {
      "lights": [
        {
          "name": "Directional Light 2",
          "color": [
            1,
            1,
            1
          ],
          "intensity": 0.7,
          "type": "directional"
        },
        {
          "name": "Directional Light",
          "color": [
            1,
            1,
            1
          ],
          "intensity": 0.7,
          "type": "directional"
        }
      ]
    }
  },
  "bufferViews": [
    {
      "buffer": 0,
      "byteOffset": 0,
      "byteLength": 340860,
      "target": 34962,
      "byteStride": 12
    },
    {
      "buffer": 0,
      "byteOffset": 340860,
      "byteLength": 227240,
      "target": 34962,
      "byteStride": 8
    },
    {
      "buffer": 0,
      "byteOffset": 568100,
      "byteLength": 340860,
      "target": 34962,
      "byteStride": 12
    },
    {
      "buffer": 0,
      "byteOffset": 908960,
      "byteLength": 463104,
      "target": 34963
    }
  ],
  "buffers": [
    {
      "byteLength": 1372064,
      "uri": "data:application/octet-stream;base64,"
    }
  ],
  "accessors": [
    {
      "bufferView": 0,
      "componentType": 5126,
      "count": 28405,
      "max": [
        67.9313735961914,
        71.36846160888672,
        75.05449676513672
      ],
      "min": [
        -67.94429016113281,
        -72.61528778076172,
        -74.94550323486328
      ],
      "type": "VEC3"
    },
    {
      "bufferView": 1,
      "componentType": 5126,
      "count": 28405,
      "max": [
        0.9995644688606262,
        0.9995659589767456
      ],
      "min": [
        0.0004355400742497295,
        0.00043404102325439453
      ],
      "type": "VEC2"
    },
    {
      "bufferView": 2,
      "componentType": 5126,
      "count": 28405,
      "max": [
        0.9999936819076538,
        0.9999971985816956,
        0.9999890923500061
      ],
      "min": [
        -0.999999463558197,
        -0.9999972581863403,
        -0.9999822378158569
      ],
      "type": "VEC3"
    },
    {
      "bufferView": 3,
      "componentType": 5125,
      "count": 115776,
      "max": [
        28404
      ],
      "min": [
        0
      ],
      "type": "SCALAR"
    }
  ],
  "materials": [
    {
      "pbrMetallicRoughness": {
        "baseColorFactor": [
          0.6288764561071445,
          0.5601512875449511,
          0.9119611163908021,
          1
        ],
        "metallicFactor": 0,
        "roughnessFactor": 0.995
      },
      "doubleSided": false
    }
  ],
  "meshes": [
    {
      "primitives": [
        {
          "mode": 4,
          "attributes": {
            "POSITION": 0,
            "TEXCOORD_0": 1,
            "NORMAL": 2
          },
          "extras": {
            "parameters": {
              "width": 135.87566375732422,
              "height": 143.98374938964844,
              "depth": 150,
              "subdivisions": 0
            },
            "type": "NonParametricGeometry"
          },
          "indices": 3,
          "material": 0
        }
      ]
    }
  ],
  "cameras": [
    {
      "type": "orthographic",
      "orthographic": {
        "xmag": 22.452635221439206,
        "ymag": 11.591547143655013,
        "zfar": 100000,
        "znear": 0
      },
      "name": "Camera"
    }
  ],
  "extensionsUsed": [
    "KHR_lights_punctual"
  ]
}